<svg width="50" height="49" viewBox="0 0 50 49" fill="none" xmlns="http://www.w3.org/2000/svg">
<path fill-rule="evenodd" clip-rule="evenodd" d="M43.5 12C43.5 12.3536 43.3595 12.6928 43.1095 12.9428C42.8594 13.1929 42.5203 13.3333 42.1667 13.3333C40.7522 13.3333 39.3956 13.8952 38.3954 14.8954C37.3952 15.8956 36.8333 17.2522 36.8333 18.6667C36.8333 19.0203 36.6929 19.3594 36.4428 19.6095C36.1928 19.8595 35.8536 20 35.5 20C35.1464 20 34.8072 19.8595 34.5572 19.6095C34.3071 19.3594 34.1667 19.0203 34.1667 18.6667C34.1667 17.2522 33.6048 15.8956 32.6046 14.8954C31.6044 13.8952 30.2478 13.3333 28.8333 13.3333C28.4797 13.3333 28.1406 13.1929 27.8905 12.9428C27.6405 12.6928 27.5 12.3536 27.5 12C27.5 11.6464 27.6405 11.3072 27.8905 11.0572C28.1406 10.8071 28.4797 10.6667 28.8333 10.6667C30.2478 10.6667 31.6044 10.1048 32.6046 9.10457C33.6048 8.10438 34.1667 6.74782 34.1667 5.33333C34.1667 4.97971 34.3071 4.64057 34.5572 4.39052C34.8072 4.14048 35.1464 4 35.5 4C35.8536 4 36.1928 4.14048 36.4428 4.39052C36.6929 4.64057 36.8333 4.97971 36.8333 5.33333C36.8333 6.74782 37.3952 8.10438 38.3954 9.10457C39.3956 10.1048 40.7522 10.6667 42.1667 10.6667C42.5203 10.6667 42.8594 10.8071 43.1095 11.0572C43.3595 11.3072 43.5 11.6464 43.5 12ZM36.9812 10.5188C37.6037 11.1412 38.3265 11.6402 39.1116 12C38.3265 12.3598 37.6037 12.8588 36.9812 13.4812C36.3588 14.1037 35.8598 14.8265 35.5 15.6116C35.1402 14.8265 34.6412 14.1037 34.0188 13.4812C33.3963 12.8588 32.6735 12.3598 31.8884 12C32.6735 11.6402 33.3963 11.1412 34.0188 10.5188C34.6412 9.89634 35.1402 9.17353 35.5 8.38839C35.8598 9.17353 36.3588 9.89634 36.9812 10.5188Z" fill="#BDC4D5"/>
<path d="M21.231 7C22.5319 7 23.7946 7.16309 25 7.46993V9.54457C23.8055 9.19023 22.5405 9 21.231 9C13.9237 9 8 14.9237 8 22.231C8 29.5382 13.9237 35.462 21.231 35.462C28.2801 35.462 34.0417 29.9494 34.44 23H36.4429C36.2666 26.5444 34.8787 29.7698 32.6849 32.2707L42.7076 42.2934C43.0981 42.6839 43.0981 43.3171 42.7076 43.7076C42.3171 44.0981 41.6839 44.0981 41.2934 43.7076L31.2707 33.6849C28.5901 36.0364 25.077 37.462 21.231 37.462C12.8191 37.462 6 30.6428 6 22.231C6 13.8191 12.8191 7 21.231 7Z" fill="#BDC4D5"/>
</svg>
