<?xml version="1.0" encoding="UTF-8"?>
<svg id="Expanded_Icons" data-name="Expanded Icons" xmlns="http://www.w3.org/2000/svg" viewBox="0 0 64 64">
  <defs>
    <style>
      .cls-1 {
        fill: #29b5e8;
        fill-rule: evenodd;
        stroke-width: 0px;
      }
    </style>
  </defs>
  <path class="cls-1" d="M39.05,10.87c-2.16-3.96-7.82-4.02-10.08-.12l-3.04,5.26-6.04,2.36c-.37.14-.56.56-.41.94l.4,1.02c.14.37.56.56.94.41l3.09-1.2-5.19,8.99h-2.13v-1.47c1.66-.54,2.86-2.1,2.86-3.93,0-2.28-1.85-4.13-4.13-4.13-1.71,0-3.17,1.03-3.8,2.51l-3.91,1.45c-.37.14-.57.55-.43.93l.38,1.03c.14.37.55.57.93.43l2.86-1.06c.38,1.32,1.4,2.36,2.7,2.78v1.47h-6.68c-1.76,0-3.18,1.42-3.18,3.18v12.72c0,1.76,1.42,3.18,3.18,3.18h.34c-2.07,3.83.69,8.53,5.09,8.53h41.26c4.39,0,7.18-4.7,5.07-8.55L39.05,10.87ZM12.7,47.61l-1.17,2.02c-.56.96.14,2.17,1.25,2.17h41.26c1.1,0,1.79-1.18,1.27-2.14l-12.48-22.83-.24.19c-2.23,1.82-5.54,1.42-7.26-.9l-1.37-1.83c-.2-.26-.54-.36-.85-.24l-8.87,3.55-.54.93h2.72c1.76,0,3.18,1.42,3.18,3.18v12.72c0,1.76-1.42,3.18-3.18,3.18h-13.73ZM32.72,12.92c.56-.98,1.98-.96,2.52.03l5.47,10-.86.71c-.32.26-.79.2-1.04-.13l-1.37-1.83c-1.37-1.84-3.81-2.53-5.94-1.68l-3.75,1.5,4.97-8.61ZM15.3,24.71c.88,0,1.59-.71,1.59-1.59s-.71-1.59-1.59-1.59-1.59.71-1.59,1.59.71,1.59,1.59,1.59ZM19.14,33.73c0,.4-.32.72-.72.72h-9.39c-.4,0-.72-.32-.72-.72v-.72c0-.4.32-.72.72-.72h9.39c.4,0,.72.32.72.72v.72ZM25.65,38.07c0,.4-.32.72-.72.72h-13.73c-.4,0-.72-.32-.72-.72v-.72c0-.4.32-.72.72-.72h13.73c.4,0,.72.32.72.72v.72ZM24.92,43.13c.4,0,.72-.32.72-.72v-.72c0-.4-.32-.72-.72-.72h-13.73c-.4,0-.72.32-.72.72v.72c0,.4.32.72.72.72h13.73Z"/>
</svg>