<?xml version="1.0" encoding="UTF-8"?>
<svg id="Expanded_Icons" data-name="Expanded Icons" xmlns="http://www.w3.org/2000/svg" viewBox="0 0 64 64">
  <defs>
    <style>
      .cls-1 {
        fill: #29b5e8;
        stroke-width: 0px;
      }
    </style>
  </defs>
  <path class="cls-1" d="M57.72,41.74v-13.03c1.73-.54,3-2.13,3-4.04s-1.27-3.5-3-4.04v-4.39h-24.64c-.54-1.73-2.13-3-4.04-3s-3.5,1.27-4.04,3h-13.13c-.54-1.73-2.13-3-4.04-3-2.34,0-4.25,1.91-4.25,4.25,0,1.86,1.21,3.43,2.89,4v20.17c-1.67.57-2.89,2.14-2.89,4,0,2.34,1.91,4.25,4.25,4.25,1.86,0,3.43-1.21,4-2.88h40.59c.54,1.73,2.13,3,4.04,3,2.34,0,4.25-1.91,4.25-4.25,0-1.9-1.27-3.5-3-4.04ZM11.77,44.07c6.5-1.98,15.59-4.53,20.74-5.96.69,1.41,2.13,2.39,3.8,2.39,1.51,0,2.82-.79,3.58-1.98l12.91,5.15c-.15.27-.27.55-.37.85H11.91c-.04-.15-.08-.31-.14-.46ZM10.25,20.98l6.4,7.81c-.63.74-1.03,1.69-1.03,2.74s.38,1.95.98,2.68l-6.64,7.79c-.31-.18-.63-.32-.98-.41v-20.03c.46-.13.89-.32,1.27-.58ZM26.13,20.57l-4.61,7.06c-.51-.22-1.07-.34-1.66-.34-.75,0-1.44.21-2.06.55l-6.49-7.93c.25-.35.43-.75.56-1.18h13.13c.22.71.61,1.33,1.13,1.83ZM29.04,21.74c1.24,0,2.35-.55,3.13-1.4l4.41,2.76c-.2.49-.31,1.02-.31,1.58,0,1.38.67,2.6,1.7,3.37l-1.44,3.99c-.07,0-.14-.02-.21-.02-1.68,0-3.12.99-3.81,2.4l-8.44-2.44c.02-.15.04-.29.04-.44,0-1.21-.52-2.3-1.34-3.08l4.61-7.06c.51.22,1.07.34,1.66.34ZM52.3,25.42c.04.24.11.46.19.68l-12.92,7.45c-.2-.25-.43-.47-.69-.66l1.45-3.99c.07,0,.13.02.2.02,2.08,0,3.81-1.51,4.17-3.5h7.6ZM53.83,42.48l-13.36-5.33c.06-.29.1-.58.1-.89,0-.5-.1-.97-.26-1.42l12.94-7.44c.52.61,1.2,1.07,1.98,1.31v13.03c-.51.16-.98.41-1.39.74ZM17.73,35.19c.63.37,1.35.6,2.13.6,1.67,0,3.1-.97,3.79-2.37l8.45,2.44c-.01.13-.04.26-.04.4s.03.28.04.42c-5.15,1.43-14.19,3.96-20.7,5.94l6.33-7.43ZM56.47,26.42c-.96,0-1.75-.78-1.75-1.75s.78-1.75,1.75-1.75,1.75.78,1.75,1.75-.78,1.75-1.75,1.75ZM55.22,20.63c-1.5.47-2.64,1.72-2.92,3.29h-7.6c-.36-1.98-2.09-3.5-4.17-3.5-1.24,0-2.36.55-3.13,1.4l-4.41-2.76c.04-.11.07-.22.1-.33h22.14v1.89ZM29.04,15.75c.96,0,1.75.78,1.75,1.75s-.78,1.75-1.75,1.75-1.75-.78-1.75-1.75.78-1.75,1.75-1.75ZM7.84,15.75c.96,0,1.75.78,1.75,1.75s-.78,1.75-1.75,1.75-1.75-.78-1.75-1.75.78-1.75,1.75-1.75ZM7.84,47.41c-.96,0-1.75-.78-1.75-1.75s.78-1.75,1.75-1.75,1.75.78,1.75,1.75-.78,1.75-1.75,1.75Z"/>
</svg>